<svg xmlns="http://www.w3.org/2000/svg" viewBox="0 0 397.64 113.02"><defs><style>.cls-1{fill:#0083a5;}.cls-2{fill:#54c0d3;}</style></defs><g id="Capa_2" data-name="Capa 2"><g id="Layer_1" data-name="Layer 1"><path class="cls-1" d="M331.84,53.52c3.15-7.38,8.94-12.8,18.05-12.8,8.74,0,14.33,5.53,17.39,12.8h17.78a13.16,13.16,0,0,1,5.17,1.06c-5-17.76-19.71-29.17-39.82-29.17s-35.65,10.66-41.18,28.87a13.25,13.25,0,0,1,4.35-.74ZM62.93,42.45H20V0H0V110.64H20v-46h43v46.05H83V0H62.93Zm66.6-17.73c-26.41,0-40.29,21.5-40.29,44.36,0,25.22,15.74,41.64,42.49,41.64,11.85,0,21.67-2.2,28.78-5.24l-3-14.22A66.5,66.5,0,0,1,134.61,95c-13.21,0-24.89-6.43-25.4-21.33h55.2a51.14,51.14,0,0,0,.68-8.81C165.09,46.73,156.28,24.72,129.53,24.72Zm15.92,34.37H109.21c.85-8.47,6.27-20.15,19.13-20.15C142.23,38.94,145.61,51.47,145.45,59.09ZM385.07,82.56h-17c-3.23,9.35-9.89,15.14-18.36,15.14h-.17c-8.8,0-15.39-6-18.56-15.13H313.58a13.22,13.22,0,0,1-5.29-1.11c4.52,20,20.77,31.56,40.74,31.56h.17c17.95,0,36.27-9.9,41.43-31.7A13.19,13.19,0,0,1,385.07,82.56ZM267.7,25.49Q251.38,25.49,242,38q-5.61-12.54-24.58-12.54A32.25,32.25,0,0,0,193.3,35.72V27.47H163.49v3.19s9.14,1.44,9.66,9.35V50.07l0-.07v61H193.3v-44a27,27,0,0,1,4.86-16.09Q203,44,211,44q14,0,14,16.33V111h20.14v-44a26.65,26.65,0,0,1,4.94-16.17,15.39,15.39,0,0,1,13-6.76q13.71,0,13.7,16.33V111H296.9V52.22Q296.9,25.49,267.7,25.49Z"/><path class="cls-2" d="M336.33,64.88c0-1.6-1-2.39-3-2.39a8.89,8.89,0,0,0-1.26.08v4.81c.23,0,.67,0,1.16,0C335.15,67.42,336.33,66.44,336.33,64.88Z"/><path class="cls-2" d="M385.06,55.33H313.58a12.58,12.58,0,0,0,0,25.15l71.49,0a12.57,12.57,0,1,0,0-25.14Zm-59.58,20.5a15.62,15.62,0,0,1-5.7,1c-5.27,0-8.41-3.11-8.41-8.19,0-5.23,3.55-9,9.33-9a17,17,0,0,1,4.71.72l-.5,3a12.27,12.27,0,0,0-4.41-.84c-3.28,0-5.65,2.07-5.65,5.8,0,3.52,1.93,5.59,5.3,5.59a7,7,0,0,0,2.12-.29v-5.8h3.21Zm11.34.79-4.63-6.88h-.13v6.88h-3.2V60c1.3-.08,2.86-.1,4.78-.1,3.68,0,6.05,1.28,6.05,4.68a4.65,4.65,0,0,1-4.25,4.64L336.8,71l4,5.6Zm12.68.27c-5.08,0-7.57-3.23-7.57-8.38,0-5.5,3.67-8.8,8.14-8.8s7.57,2.66,7.57,8.36C357.64,73.57,354,76.89,349.5,76.89Zm24-6.73c0,4.57-2.52,6.73-6.91,6.73-5.25,0-6.43-2.86-6.43-6V60h3.2V70.66c0,2.09.69,3.57,3.46,3.57,2.46,0,3.5-1,3.5-3.87V60h3.18Zm7.74.64a8.56,8.56,0,0,1-1.08,0v5.87H377V60c1.36-.08,2.84-.1,4.46-.1,4.1,0,6.34,1.9,6.34,5.15S385.3,70.8,381.26,70.8Z"/><path class="cls-2" d="M349.77,62.59c-2.29,0-4.41,1.83-4.41,5.57,0,3.53,1.38,5.82,4.36,5.82,2.17,0,4.49-1.67,4.49-5.67C354.21,64.61,352.63,62.59,349.77,62.59Z"/><path class="cls-2" d="M381.31,62.49c-.39,0-.76,0-1.13,0v5.55a6.09,6.09,0,0,0,.93.07c2,0,3.33-1.11,3.33-2.91S383.48,62.49,381.31,62.49Z"/></g></g></svg>