<svg xmlns="http://www.w3.org/2000/svg" xmlns:xlink="http://www.w3.org/1999/xlink" viewBox="0 0 398.15 258.95"><defs><style>.cls-1{fill:#0083a5;}.cls-2{fill:#54c0d3;}.cls-3{fill:url(#radial-gradient);}.cls-4{fill:url(#linear-gradient);}.cls-5{fill:url(#linear-gradient-2);}.cls-6,.cls-8{fill:#fff;}.cls-7{fill:#006eb8;}.cls-8{opacity:0.2;}</style><radialGradient id="radial-gradient" cx="5318.06" cy="80.87" r="76.78" gradientTransform="matrix(-0.97, 0, 0, 1, 5327.22, 0)" gradientUnits="userSpaceOnUse"><stop offset="0.15" stop-color="#54c0d3"/><stop offset="0.45" stop-color="#2ea4be"/><stop offset="0.76" stop-color="#0083a5"/><stop offset="0.99" stop-color="#0083a5"/></radialGradient><linearGradient id="linear-gradient" x1="223.7" y1="120.34" x2="223.73" y2="120.34" gradientUnits="userSpaceOnUse"><stop offset="0" stop-color="#006eb8"/><stop offset="0.64" stop-color="#006eb8"/><stop offset="0.69" stop-color="#0c77bb"/><stop offset="0.78" stop-color="#2d8ec4"/><stop offset="0.9" stop-color="#61b3d3"/><stop offset="0.98" stop-color="#85cddd"/></linearGradient><linearGradient id="linear-gradient-2" x1="196.66" y1="81.4" x2="243.55" y2="81.4" gradientUnits="userSpaceOnUse"><stop offset="0" stop-color="#006eb8"/><stop offset="0.63" stop-color="#006eb8"/><stop offset="0.68" stop-color="#0c77bb"/><stop offset="0.77" stop-color="#2d8ec4"/><stop offset="0.9" stop-color="#61b3d3"/><stop offset="0.98" stop-color="#85cddd"/></linearGradient></defs><g id="Capa_2" data-name="Capa 2"><g id="Layer_1" data-name="Layer 1"><path class="cls-1" d="M2.33,246v5.09H7.71V246H10v12.7H7.71v-5.59H2.33v5.59H0V246Z"/><path class="cls-1" d="M19.57,253.11h-4.8v3.73h5.37v1.9h-7.7V246h7.41V248H14.77v3.28h4.8Z"/><path class="cls-1" d="M32.67,253.56c-.07-1.64-.17-3.62-.15-5.33h-.05c-.42,1.54-.95,3.26-1.52,4.86l-1.87,5.5H27.3l-1.7-5.42c-.49-1.62-.94-3.36-1.28-4.94h0c-.06,1.66-.13,3.67-.23,5.41l-.28,5.1H21.59l.86-12.7h3.06l1.66,5.11c.46,1.49.85,3,1.17,4.41h.06c.34-1.38.78-2.94,1.27-4.43L31.43,246h3l.74,12.7H32.92Z"/><path class="cls-1" d="M39.73,255.15l-1.1,3.59h-2.4L40.31,246h3l4.14,12.7H44.91l-1.15-3.59Zm3.65-1.76-1-3.13c-.25-.77-.46-1.64-.65-2.37h0c-.18.73-.39,1.62-.6,2.37l-1,3.13Z"/><path class="cls-1" d="M49.85,248H46.22V246h9.62V248H52.17v10.76H49.85Z"/><path class="cls-1" d="M67.85,252.26c0,4.26-2.6,6.69-6.09,6.69s-5.88-2.75-5.88-6.46c0-3.92,2.47-6.67,6.07-6.67S67.85,248.62,67.85,252.26Zm-9.51.17c0,2.6,1.3,4.66,3.53,4.66s3.52-2.1,3.52-4.75c0-2.4-1.19-4.66-3.52-4.66S58.34,249.81,58.34,252.43Z"/><path class="cls-1" d="M69.57,258.74V246h2.66l3.29,5.45a38.19,38.19,0,0,1,2.18,4.26h0a49.13,49.13,0,0,1-.21-5.28V246h2.15v12.7H77.26l-3.32-5.59a42.28,42.28,0,0,1-2.27-4.37h-.08c.1,1.64.13,3.32.13,5.41v4.54Z"/><path class="cls-1" d="M91.24,258.39a8.57,8.57,0,0,1-3.31.56c-4.05,0-6.51-2.52-6.51-6.41,0-4.18,2.93-6.7,6.83-6.7a7.32,7.32,0,0,1,3.08.56l-.49,1.85a6.22,6.22,0,0,0-2.5-.49c-2.59,0-4.46,1.62-4.46,4.67,0,2.81,1.63,4.58,4.44,4.58a7.21,7.21,0,0,0,2.54-.45Z"/><path class="cls-1" d="M103.77,252.26c0,4.26-2.59,6.69-6.08,6.69s-5.88-2.75-5.88-6.46c0-3.92,2.47-6.67,6.07-6.67S103.77,248.62,103.77,252.26Zm-9.51.17c0,2.6,1.31,4.66,3.54,4.66s3.52-2.1,3.52-4.75c0-2.4-1.2-4.66-3.52-4.66S94.26,249.81,94.26,252.43Z"/><path class="cls-1" d="M105.52,246h2.32V256.8h5.24v1.94h-7.56Z"/><path class="cls-1" d="M125.14,252.26c0,4.26-2.59,6.69-6.09,6.69s-5.88-2.75-5.88-6.46c0-3.92,2.48-6.67,6.07-6.67S125.14,248.62,125.14,252.26Zm-9.51.17c0,2.6,1.31,4.66,3.54,4.66s3.51-2.1,3.51-4.75c0-2.4-1.19-4.66-3.51-4.66S115.63,249.81,115.63,252.43Z"/><path class="cls-1" d="M137.09,258.16a12.63,12.63,0,0,1-4.08.72,6.92,6.92,0,0,1-5-1.7,6.32,6.32,0,0,1-1.78-4.67c0-4,2.88-6.6,7.09-6.6a8.59,8.59,0,0,1,3.39.6l-.51,1.87a6.64,6.64,0,0,0-2.9-.55,4.26,4.26,0,0,0-4.63,4.56c0,2.89,1.78,4.6,4.42,4.6a4.92,4.92,0,0,0,1.76-.24v-3.19h-2.25v-1.83h4.5Z"/><path class="cls-1" d="M142.1,258.74v-5.29l-4-7.41h2.66l1.52,3.26c.43.95.75,1.66,1.11,2.53h0c.3-.81.66-1.6,1.1-2.53L146,246h2.62l-4.23,7.35v5.35Z"/><path class="cls-1" d="M161.5,258.74c-.32-.32-.6-.64-1-1.05a5.32,5.32,0,0,1-3.59,1.26c-2.8,0-4.2-1.75-4.2-3.6a4.11,4.11,0,0,1,2.46-3.67v-.06a4.1,4.1,0,0,1-1-2.54,3.31,3.31,0,0,1,3.55-3.26,2.9,2.9,0,0,1,3.18,2.84c0,1.32-.77,2.4-2.63,3.34l0,.05c.89,1,1.88,2.15,2.58,2.91a9,9,0,0,0,1.15-3.38H164a9.41,9.41,0,0,1-2,4.77c.72.79,1.4,1.57,2.18,2.39Zm-2.09-2.37c-.78-.79-2-2.15-3.2-3.52a2.62,2.62,0,0,0-1.28,2.14,2.22,2.22,0,0,0,2.34,2.25A3,3,0,0,0,159.41,256.37Zm-3.16-7.52a3,3,0,0,0,.93,2c1.07-.68,1.7-1.27,1.7-2.15a1.32,1.32,0,0,0-1.29-1.43A1.39,1.39,0,0,0,156.25,248.85Z"/><path class="cls-1" d="M169,256.22a6.44,6.44,0,0,0,3.08.81c1.48,0,2.31-.7,2.31-1.73s-.64-1.53-2.25-2.11c-2.12-.76-3.46-1.87-3.46-3.7,0-2.09,1.74-3.65,4.52-3.65a6.63,6.63,0,0,1,3,.64l-.54,1.86a5.71,5.71,0,0,0-2.56-.6c-1.47,0-2.1.77-2.1,1.53,0,1,.74,1.43,2.44,2.09,2.22.83,3.27,1.94,3.27,3.77,0,2.05-1.55,3.82-4.82,3.82a7.29,7.29,0,0,1-3.46-.81Z"/><path class="cls-1" d="M178.6,246.21a20.64,20.64,0,0,1,3.55-.26,5.73,5.73,0,0,1,3.75,1,3.6,3.6,0,0,1,1.25,2.8,3.87,3.87,0,0,1-1.08,2.87,5.69,5.69,0,0,1-4,1.37,5.44,5.44,0,0,1-1.13-.09v4.8H178.6Zm2.31,5.9a3.69,3.69,0,0,0,1.13.11c1.74,0,2.8-.86,2.8-2.33s-1-2.15-2.59-2.15a7,7,0,0,0-1.34.11Z"/><path class="cls-1" d="M196,253.11h-4.8v3.73h5.37v1.9h-7.69V246h7.41V248h-5.09v3.28H196Z"/><path class="cls-1" d="M207.51,258.39a8.57,8.57,0,0,1-3.31.56c-4,0-6.5-2.52-6.5-6.41,0-4.18,2.93-6.7,6.82-6.7a7.38,7.38,0,0,1,3.09.56l-.5,1.85a6.13,6.13,0,0,0-2.49-.49c-2.59,0-4.46,1.62-4.46,4.67,0,2.81,1.62,4.58,4.44,4.58a7.11,7.11,0,0,0,2.53-.45Z"/><path class="cls-1" d="M211.56,246v12.7h-2.33V246Z"/><path class="cls-1" d="M216.51,255.15l-1.09,3.59H213L217.1,246h3l4.14,12.7h-2.52l-1.15-3.59Zm3.65-1.76-1-3.13c-.25-.77-.45-1.64-.64-2.37h0c-.19.73-.4,1.62-.61,2.37l-1,3.13Z"/><path class="cls-1" d="M225.72,246h2.33V256.8h5.23v1.94h-7.56Z"/><path class="cls-1" d="M237.1,246v12.7h-2.32V246Z"/><path class="cls-1" d="M242,248h-3.63V246h9.62V248h-3.67v10.76H242Z"/><path class="cls-1" d="M252.36,258.74v-5.29l-4-7.41H251l1.52,3.26c.43.95.75,1.66,1.11,2.53h0c.3-.81.66-1.6,1.1-2.53L256.3,246h2.62l-4.23,7.35v5.35Z"/><path class="cls-1" d="M274.49,253.56c-.08-1.64-.17-3.62-.15-5.33h-.06c-.42,1.54-.95,3.26-1.51,4.86l-1.88,5.5h-1.77l-1.7-5.42c-.5-1.62-.95-3.36-1.29-4.94h0c0,1.66-.13,3.67-.22,5.41l-.29,5.1h-2.17l.85-12.7h3.06l1.67,5.11c.45,1.49.85,3,1.17,4.41h0c.34-1.38.78-2.94,1.27-4.43l1.76-5.09h3l.74,12.7h-2.27Z"/><path class="cls-1" d="M286.23,253.11h-4.8v3.73h5.37v1.9h-7.7V246h7.41V248h-5.08v3.28h4.8Z"/><path class="cls-1" d="M288.58,246.21a26.35,26.35,0,0,1,3.7-.26,7.72,7.72,0,0,1,5.18,1.47,5.64,5.64,0,0,1,2,4.67,6.53,6.53,0,0,1-2,5,8.54,8.54,0,0,1-5.77,1.74,26.65,26.65,0,0,1-3.13-.17ZM290.9,257a8.2,8.2,0,0,0,1.29.06c3,0,4.82-1.66,4.82-4.88,0-2.79-1.61-4.41-4.52-4.41a7.32,7.32,0,0,0-1.59.13Z"/><path class="cls-1" d="M303.55,246v12.7h-2.32V246Z"/><path class="cls-1" d="M315.09,258.39a8.57,8.57,0,0,1-3.31.56c-4,0-6.51-2.52-6.51-6.41,0-4.18,2.93-6.7,6.83-6.7a7.32,7.32,0,0,1,3.08.56l-.49,1.85a6.22,6.22,0,0,0-2.5-.49c-2.59,0-4.46,1.62-4.46,4.67,0,2.81,1.63,4.58,4.44,4.58a7.21,7.21,0,0,0,2.54-.45Z"/><path class="cls-1" d="M319.49,255.15l-1.09,3.59H316l4.08-12.7h3l4.14,12.7h-2.52l-1.15-3.59Zm3.65-1.76-1-3.13c-.25-.77-.45-1.64-.64-2.37h0c-.19.73-.4,1.62-.61,2.37l-1,3.13Z"/><path class="cls-1" d="M328.7,246H331V256.8h5.23v1.94H328.7Z"/><path class="cls-1" d="M351.62,258.16a12.64,12.64,0,0,1-4.09.72,6.93,6.93,0,0,1-5-1.7,6.36,6.36,0,0,1-1.77-4.67c0-4,2.87-6.6,7.09-6.6a8.49,8.49,0,0,1,3.38.6l-.51,1.87a6.59,6.59,0,0,0-2.89-.55,4.26,4.26,0,0,0-4.63,4.56c0,2.89,1.77,4.6,4.42,4.6a5,5,0,0,0,1.76-.24v-3.19h-2.25v-1.83h4.5Z"/><path class="cls-1" d="M353.74,246.23a20,20,0,0,1,3.51-.28,5.94,5.94,0,0,1,3.94,1,3.21,3.21,0,0,1,1.09,2.56A3.34,3.34,0,0,1,360,252.7v.05a3.16,3.16,0,0,1,1.77,2.45,31.69,31.69,0,0,0,1,3.54h-2.39a16.69,16.69,0,0,1-.85-3c-.37-1.66-1-2.19-2.28-2.23H356v5.22h-2.3Zm2.3,5.6h1.38c1.57,0,2.54-.83,2.54-2.09s-1-2-2.48-2a7.32,7.32,0,0,0-1.44.11Z"/><path class="cls-1" d="M375.54,252.26c0,4.26-2.59,6.69-6.09,6.69s-5.88-2.75-5.88-6.46c0-3.92,2.48-6.67,6.07-6.67S375.54,248.62,375.54,252.26Zm-9.51.17c0,2.6,1.3,4.66,3.53,4.66s3.52-2.1,3.52-4.75c0-2.4-1.19-4.66-3.52-4.66S366,249.81,366,252.43Z"/><path class="cls-1" d="M379.59,246v7.41c0,2.49,1,3.64,2.61,3.64s2.68-1.15,2.68-3.64V246h2.33v7.26c0,3.92-2,5.65-5.09,5.65s-4.86-1.64-4.86-5.63V246Z"/><path class="cls-1" d="M389.61,246.21a20.64,20.64,0,0,1,3.55-.26,5.75,5.75,0,0,1,3.75,1,3.59,3.59,0,0,1,1.24,2.8,3.86,3.86,0,0,1-1.07,2.87,5.71,5.71,0,0,1-4,1.37,5.39,5.39,0,0,1-1.13-.09v4.8h-2.31Zm2.31,5.9a3.69,3.69,0,0,0,1.13.11c1.74,0,2.8-.86,2.8-2.33s-1-2.15-2.59-2.15a6.88,6.88,0,0,0-1.34.11Z"/><path class="cls-1" d="M332.26,171.83c3.14-7.39,8.94-12.81,18.05-12.81,8.74,0,14.33,5.53,17.39,12.8h17.78a13.34,13.34,0,0,1,5.17,1.06c-5-17.76-19.71-29.17-39.83-29.17s-35.64,10.67-41.17,28.87a13.25,13.25,0,0,1,4.35-.74ZM63.35,160.76h-43V118.3H.42V228.94h20V182.89h43v46.05h20.1V118.3H63.35ZM130,143c-26.41,0-40.3,21.5-40.3,44.36,0,25.23,15.75,41.65,42.5,41.65,11.85,0,21.67-2.2,28.78-5.25l-3.05-14.22A66.4,66.4,0,0,1,135,213.28c-13.21,0-24.89-6.43-25.4-21.33h55.19a51,51,0,0,0,.68-8.8C165.5,165,156.7,143,130,143Zm15.91,34.37H109.63c.85-8.47,6.27-20.15,19.13-20.15C142.65,157.24,146,169.77,145.86,177.39Zm239.63,23.47h-17c-3.22,9.35-9.89,15.14-18.35,15.14H350c-8.79,0-15.38-6-18.55-15.13H314a13.27,13.27,0,0,1-5.3-1.1c4.52,19.95,20.78,31.55,40.75,31.55h.17c17.95,0,36.27-9.9,41.43-31.69A13.33,13.33,0,0,1,385.49,200.86ZM268.12,143.79q-16.33,0-25.74,12.54-5.61-12.53-24.58-12.54A32.3,32.3,0,0,0,193.71,154v-8.26h-29.8V149s9.14,1.44,9.65,9.35v10.07l0-.06v60.94h20.12V185.2a27,27,0,0,1,4.87-16.08q4.88-6.84,12.79-6.85,14,0,14,16.34v50.64h20.13V185.2A26.68,26.68,0,0,1,250.46,169a15.43,15.43,0,0,1,13-6.77q13.71,0,13.7,16.34v50.64h20.12V170.52Q297.32,143.79,268.12,143.79Z"/><path class="cls-2" d="M336.75,183.19c0-1.6-1-2.39-3-2.39a9.06,9.06,0,0,0-1.26.07v4.81c.22,0,.67,0,1.16,0C335.57,185.73,336.75,184.74,336.75,183.19Z"/><path class="cls-2" d="M385.48,173.63l-71.48,0a12.57,12.57,0,0,0,0,25.14l71.49,0a12.57,12.57,0,1,0,0-25.14ZM325.9,194.14a15.83,15.83,0,0,1-5.7,1c-5.28,0-8.41-3.1-8.41-8.18,0-5.23,3.55-9,9.32-9a17,17,0,0,1,4.71.72l-.49,3a12.49,12.49,0,0,0-4.41-.84c-3.28,0-5.65,2.08-5.65,5.8,0,3.53,1.92,5.6,5.3,5.6a7,7,0,0,0,2.12-.3V186.2h3.21Zm11.34.79-4.63-6.88h-.13v6.88h-3.2V178.28c1.3-.07,2.86-.1,4.78-.1,3.67,0,6,1.29,6,4.69a4.64,4.64,0,0,1-4.24,4.63c.47.62.94,1.26,1.36,1.83l4,5.6Zm12.68.27c-5.08,0-7.57-3.23-7.57-8.39,0-5.5,3.67-8.8,8.13-8.8s7.57,2.66,7.57,8.36C358.05,191.87,354.43,195.2,349.92,195.2Zm24-6.73c0,4.56-2.51,6.73-6.9,6.73-5.25,0-6.44-2.86-6.44-6V178.28h3.21V189c0,2.1.69,3.57,3.45,3.57,2.47,0,3.51-1,3.51-3.87V178.28h3.17Zm7.75.64a8.71,8.71,0,0,1-1.09-.05v5.87h-3.2V178.28c1.36-.07,2.84-.1,4.46-.1,4.1,0,6.34,1.9,6.34,5.16S385.72,189.11,381.68,189.11Z"/><path class="cls-2" d="M350.19,180.89c-2.29,0-4.42,1.83-4.42,5.58,0,3.52,1.39,5.82,4.37,5.82,2.17,0,4.49-1.68,4.49-5.67C354.63,182.92,353.05,180.89,350.19,180.89Z"/><path class="cls-2" d="M381.73,180.8c-.4,0-.77,0-1.14,0v5.55a6.22,6.22,0,0,0,.94.07c2,0,3.33-1.11,3.33-2.91S383.9,180.8,381.73,180.8Z"/><path class="cls-3" d="M225.23,98s5.36,21.41-15.81,27.16a47.32,47.32,0,0,1-6.84.93h-2.84c-18.15,0-33.48-12.89-38.43-30.61a46,46,0,0,1-1.67-12.29,33.32,33.32,0,0,1,1.19-8.11c.33-1.28.72-2.59,1.15-4,4.15-12.89,13.79-28.84,22.22-42.68L201.8,0l17.71,28.3c4,6.62,8.66,13.45,12.37,20.61l-.16-.13a38.12,38.12,0,0,0-10.55-9,2.18,2.18,0,0,0-1.32-.44,2.3,2.3,0,0,0-2.26,2.34,2.37,2.37,0,0,0,.41,1.35h0l0,.06c.05.06.09.12.14.17a119.88,119.88,0,0,1,8.73,12.09c.08.11,7.63,10.29,1.72,17.65,0,0-3.47,3.49-13.66,3.78-3.46.52-9.91.12-19.58,4.91h0A2.34,2.34,0,0,0,194,83.9a2.3,2.3,0,0,0,2.26,2.34h0c.89,0,2.53-.08,4-.08C200.21,86.16,221.83,84.85,225.23,98Z"/><path class="cls-4" d="M223.73,120.33h0Z"/><path class="cls-5" d="M227.6,104.38s-.12,8.84-4,14.15c0,0-.5.74-.66.93h0a.6.6,0,0,0-.13.38.58.58,0,0,0,.57.59.51.51,0,0,0,.32-.1,46.41,46.41,0,0,0,11.61-11.43,52.34,52.34,0,0,0,6.16-12,35.15,35.15,0,0,0,2-13.79A62,62,0,0,0,235.89,58a43.51,43.51,0,0,0-8.79-11.57,61.44,61.44,0,0,0-5-3.9h0a.79.79,0,0,0-.48-.16.85.85,0,0,0-.84.86.86.86,0,0,0,.27.64,104.15,104.15,0,0,1,7.35,10.33s8.2,11.69,1.79,19.67c0,0-2.14,4.35-15.17,4.69,0,0-10.7.87-17.64,3.75h0a1.16,1.16,0,0,0,.39,2.23s4.83-.14,9.22.18C207,84.71,229.33,84.58,227.6,104.38Z"/><path class="cls-6" d="M225.13,62.91a6.81,6.81,0,1,1-6.8-7A6.92,6.92,0,0,1,225.13,62.91Z"/><path class="cls-7" d="M223.66,62.92a5.33,5.33,0,1,1-5.33-5.53A5.42,5.42,0,0,1,223.66,62.92Z"/><path class="cls-8" d="M169.42,63.33C209.59,74.89,222,40.24,222,40.24c-1-1.61-5.07-8.21-6-9.81l-14.4-23L187.2,30.58c-6.07,10-13.31,21.89-18.18,32.6Z"/></g></g></svg>